<?xml version="1.0" standalone="no"?>
<!DOCTYPE svg PUBLIC "-//W3C//DTD SVG 20010904//EN"
 "http://www.w3.org/TR/2001/REC-SVG-20010904/DTD/svg10.dtd">
<svg version="1.0" xmlns="http://www.w3.org/2000/svg"
 width="1120.000000pt" height="1120.000000pt" viewBox="0 0 1120.000000 1120.000000"
 preserveAspectRatio="xMidYMid meet">
<metadata>
Created by potrace 1.14, written by Peter Selinger 2001-2017
</metadata>
<g transform="translate(0.000000,1120.000000) scale(0.100000,-0.100000)"
fill="#000000" stroke="none">
<path d="M5720 7645 c-1983 -1896 -3651 -3493 -3708 -3549 l-103 -102 666
-650 c366 -357 670 -649 675 -649 5 0 217 200 472 445 621 598 2562 2464 4143
3985 710 683 1310 1263 1334 1291 56 63 109 174 122 255 6 40 8 511 7 1243
l-3 1179 -3605 -3448z"/>
<path d="M7905 5389 c-775 -743 -1931 -1848 -2567 -2457 -637 -608 -1158
-1109 -1157 -1112 0 -3 409 -384 907 -847 l907 -842 1360 -1 1360 0 -60 59
c-121 118 -1347 1282 -1548 1470 l-209 194 49 48 c26 27 547 527 1157 1111
931 892 1115 1073 1148 1128 79 132 73 21 76 1383 1 669 -1 1217 -5 1216 -5 0
-642 -608 -1418 -1350z"/>
</g>
</svg>
